<svg xmlns="http://www.w3.org/2000/svg" viewBox="0 0 820 160" style="width:100%;max-width:820px;background:#0d1117;border:1px solid #30363d;border-radius:8px;display:block;margin:16px 0;">
  <defs>
    <marker id="bfa" markerWidth="10" markerHeight="7" refX="10" refY="3.5" orient="auto">
      <polygon points="0 0, 10 3.5, 0 7" fill="#58a6ff"/>
    </marker>
  </defs>
  <text x="410" y="22" text-anchor="middle" fill="#3fb950" font-size="13" font-family="monospace" font-weight="bold">Backend Request Lifecycle</text>
  <rect x="20" y="50" width="100" height="40" rx="6" fill="#161b22" stroke="#58a6ff" stroke-width="1.5"/>
  <text x="70" y="74" text-anchor="middle" fill="#58a6ff" font-size="10" font-family="monospace">React Client</text>
  <line x1="120" y1="70" x2="155" y2="70" stroke="#58a6ff" stroke-width="1.5" marker-end="url(#bfa)"/>
  <rect x="155" y="50" width="110" height="40" rx="6" fill="#161b22" stroke="#3fb950" stroke-width="1.5"/>
  <text x="210" y="68" text-anchor="middle" fill="#3fb950" font-size="10" font-family="monospace">CORS + Rate</text>
  <text x="210" y="82" text-anchor="middle" fill="#8b949e" font-size="9" font-family="monospace">Limit Middleware</text>
  <line x1="265" y1="70" x2="300" y2="70" stroke="#58a6ff" stroke-width="1.5" marker-end="url(#bfa)"/>
  <rect x="300" y="50" width="110" height="40" rx="6" fill="#161b22" stroke="#d2a8ff" stroke-width="1.5"/>
  <text x="355" y="68" text-anchor="middle" fill="#d2a8ff" font-size="10" font-family="monospace">authMiddleware</text>
  <text x="355" y="82" text-anchor="middle" fill="#8b949e" font-size="9" font-family="monospace">JWT verify</text>
  <line x1="410" y1="70" x2="445" y2="70" stroke="#58a6ff" stroke-width="1.5" marker-end="url(#bfa)"/>
  <rect x="445" y="50" width="110" height="40" rx="6" fill="#161b22" stroke="#ffa657" stroke-width="1.5"/>
  <text x="500" y="68" text-anchor="middle" fill="#ffa657" font-size="10" font-family="monospace">roleMiddleware</text>
  <text x="500" y="82" text-anchor="middle" fill="#8b949e" font-size="9" font-family="monospace">RBAC check</text>
  <line x1="555" y1="70" x2="590" y2="70" stroke="#58a6ff" stroke-width="1.5" marker-end="url(#bfa)"/>
  <rect x="590" y="50" width="110" height="40" rx="6" fill="#161b22" stroke="#3fb950" stroke-width="1.5"/>
  <text x="645" y="68" text-anchor="middle" fill="#3fb950" font-size="10" font-family="monospace">Controller</text>
  <text x="645" y="82" text-anchor="middle" fill="#8b949e" font-size="9" font-family="monospace">Business logic</text>
  <line x1="700" y1="70" x2="735" y2="70" stroke="#58a6ff" stroke-width="1.5" marker-end="url(#bfa)"/>
  <rect x="735" y="50" width="65" height="40" rx="6" fill="#161b22" stroke="#ffa657" stroke-width="1.5"/>
  <text x="767" y="68" text-anchor="middle" fill="#ffa657" font-size="10" font-family="monospace">MongoDB</text>
  <text x="767" y="82" text-anchor="middle" fill="#8b949e" font-size="9" font-family="monospace">Mongoose</text>
  <!-- Labels -->
  <text x="410" y="120" text-anchor="middle" fill="#8b949e" font-size="9" font-family="monospace">Every protected route passes through: CORS → JWT verify → Role check → Controller → DB</text>
  <text x="410" y="138" text-anchor="middle" fill="#8b949e" font-size="9" font-family="monospace">AI-dependent routes additionally proxy to Python :8000 via aiService.js</text>
</svg>