<svg xmlns="http://www.w3.org/2000/svg" viewBox="0 0 860 300" style="width:100%;max-width:860px;background:#0d1117;border:1px solid #30363d;border-radius:8px;display:block;margin:16px 0;">
  <defs>
    <marker id="pa" markerWidth="10" markerHeight="7" refX="10" refY="3.5" orient="auto">
      <polygon points="0 0, 10 3.5, 0 7" fill="#58a6ff"/>
    </marker>
    <marker id="pg" markerWidth="10" markerHeight="7" refX="10" refY="3.5" orient="auto">
      <polygon points="0 0, 10 3.5, 0 7" fill="#3fb950"/>
    </marker>
    <marker id="pr" markerWidth="10" markerHeight="7" refX="10" refY="3.5" orient="auto">
      <polygon points="0 0, 10 3.5, 0 7" fill="#f85149"/>
    </marker>
  </defs>
  <text x="430" y="22" text-anchor="middle" fill="#58a6ff" font-size="13" font-family="monospace" font-weight="bold">CI/CD Pipeline Flow</text>
  <rect x="20" y="50" width="100" height="44" rx="5" fill="#161b22" stroke="#58a6ff" stroke-width="1.5"/>
  <text x="70" y="68" text-anchor="middle" fill="#58a6ff" font-size="10" font-family="monospace">git push</text>
  <text x="70" y="84" text-anchor="middle" fill="#8b949e" font-size="9" font-family="monospace">Developer</text>
  <line x1="120" y1="72" x2="138" y2="72" stroke="#58a6ff" stroke-width="1.5" marker-end="url(#pa)"/>
  <rect x="140" y="50" width="110" height="44" rx="5" fill="#161b22" stroke="#d2a8ff" stroke-width="1.5"/>
  <text x="195" y="68" text-anchor="middle" fill="#d2a8ff" font-size="10" font-family="monospace">GitHub</text>
  <text x="195" y="84" text-anchor="middle" fill="#8b949e" font-size="9" font-family="monospace">Receives push</text>
  <line x1="250" y1="72" x2="268" y2="72" stroke="#d2a8ff" stroke-width="1.5" marker-end="url(#pa)"/>
  <polygon points="300,50 350,72 300,94 250,72" fill="#161b22" stroke="#ffa657" stroke-width="1.5"/>
  <text x="300" y="68" text-anchor="middle" fill="#ffa657" font-size="9" font-family="monospace">Branch?</text>
  <text x="300" y="82" text-anchor="middle" fill="#ffa657" font-size="9" font-family="monospace">main?</text>
  <line x1="300" y1="94" x2="300" y2="130" stroke="#8b949e" stroke-width="1.5" marker-end="url(#pa)"/>
  <text x="312" y="116" fill="#8b949e" font-size="9" font-family="monospace">feature/*</text>
  <rect x="230" y="132" width="140" height="36" rx="5" fill="#161b22" stroke="#8b949e" stroke-width="1.5"/>
  <text x="300" y="150" text-anchor="middle" fill="#8b949e" font-size="10" font-family="monospace">Lint + Tests only</text>
  <text x="300" y="163" text-anchor="middle" fill="#8b949e" font-size="9" font-family="monospace">(no deploy)</text>
  <line x1="350" y1="72" x2="388" y2="72" stroke="#3fb950" stroke-width="1.5" marker-end="url(#pg)"/>
  <text x="368" y="67" text-anchor="middle" fill="#3fb950" font-size="9" font-family="monospace">main</text>
  <rect x="390" y="50" width="90" height="44" rx="5" fill="#161b22" stroke="#3fb950" stroke-width="1.5"/>
  <text x="435" y="68" text-anchor="middle" fill="#3fb950" font-size="10" font-family="monospace">Install deps</text>
  <text x="435" y="84" text-anchor="middle" fill="#8b949e" font-size="9" font-family="monospace">npm install</text>
  <line x1="480" y1="72" x2="498" y2="72" stroke="#3fb950" stroke-width="1.5" marker-end="url(#pg)"/>
  <rect x="500" y="50" width="90" height="44" rx="5" fill="#161b22" stroke="#3fb950" stroke-width="1.5"/>
  <text x="545" y="68" text-anchor="middle" fill="#3fb950" font-size="10" font-family="monospace">Lint + Test</text>
  <text x="545" y="84" text-anchor="middle" fill="#8b949e" font-size="9" font-family="monospace">ESLint + Jest</text>
  <line x1="590" y1="72" x2="608" y2="72" stroke="#3fb950" stroke-width="1.5" marker-end="url(#pg)"/>
  <polygon points="640,50 690,72 640,94 590,72" fill="#161b22" stroke="#ffa657" stroke-width="1.5"/>
  <text x="640" y="68" text-anchor="middle" fill="#ffa657" font-size="9" font-family="monospace">Tests</text>
  <text x="640" y="82" text-anchor="middle" fill="#ffa657" font-size="9" font-family="monospace">pass?</text>
  <line x1="640" y1="94" x2="640" y2="130" stroke="#f85149" stroke-width="1.5" marker-end="url(#pr)"/>
  <text x="652" y="116" fill="#f85149" font-size="9" font-family="monospace">No</text>
  <rect x="580" y="132" width="120" height="36" rx="5" fill="#161b22" stroke="#f85149" stroke-width="1.5"/>
  <text x="640" y="150" text-anchor="middle" fill="#f85149" font-size="10" font-family="monospace">Fail Pipeline</text>
  <text x="640" y="163" text-anchor="middle" fill="#8b949e" font-size="9" font-family="monospace">Notify developer</text>
  <line x1="690" y1="72" x2="728" y2="72" stroke="#3fb950" stroke-width="1.5" marker-end="url(#pg)"/>
  <text x="708" y="67" fill="#3fb950" font-size="9" font-family="monospace">Yes</text>
  <rect x="730" y="50" width="110" height="44" rx="5" fill="#161b22" stroke="#3fb950" stroke-width="1.5"/>
  <text x="785" y="68" text-anchor="middle" fill="#3fb950" font-size="10" font-family="monospace">Build + Deploy</text>
  <text x="785" y="84" text-anchor="middle" fill="#8b949e" font-size="9" font-family="monospace">Vercel + Render</text>
  <line x1="785" y1="94" x2="785" y2="130" stroke="#3fb950" stroke-width="1.5" marker-end="url(#pg)"/>
  <rect x="720" y="132" width="130" height="36" rx="5" fill="#1a3a2a" stroke="#3fb950" stroke-width="1.5"/>
  <text x="785" y="150" text-anchor="middle" fill="#3fb950" font-size="10" font-family="monospace">✅ Deployment</text>
  <text x="785" y="163" text-anchor="middle" fill="#3fb950" font-size="9" font-family="monospace">Complete</text>
</svg>