<svg xmlns="http://www.w3.org/2000/svg" viewBox="0 0 860 320" style="width:100%;max-width:860px;background:#0d1117;border:1px solid #30363d;border-radius:8px;display:block;margin:16px 0;">
  <defs>
    <marker id="d4a" markerWidth="10" markerHeight="7" refX="10" refY="3.5" orient="auto">
      <polygon points="0 0, 10 3.5, 0 7" fill="#58a6ff"/>
    </marker>
    <marker id="d4g" markerWidth="10" markerHeight="7" refX="10" refY="3.5" orient="auto">
      <polygon points="0 0, 10 3.5, 0 7" fill="#3fb950"/>
    </marker>
    <marker id="d4o" markerWidth="10" markerHeight="7" refX="10" refY="3.5" orient="auto">
      <polygon points="0 0, 10 3.5, 0 7" fill="#ffa657"/>
    </marker>
    <marker id="d4r" markerWidth="10" markerHeight="7" refX="10" refY="3.5" orient="auto">
      <polygon points="0 0, 10 3.5, 0 7" fill="#f85149"/>
    </marker>
  </defs>
  <text x="430" y="22" text-anchor="middle" fill="#58a6ff" font-size="12" font-family="monospace" font-weight="bold">Level 3 — Internal Request Data Flow</text>
  <!-- React SPA -->
  <rect x="20" y="130" width="90" height="50" rx="5" fill="#161b22" stroke="#58a6ff" stroke-width="1.5"/>
  <text x="65" y="150" text-anchor="middle" fill="#58a6ff" font-size="10" font-family="monospace">React SPA</text>
  <text x="65" y="166" text-anchor="middle" fill="#8b949e" font-size="9" font-family="monospace">HTTPS + JWT</text>
  <!-- Node.js layer boxes -->
  <rect x="130" y="50" width="80" height="44" rx="5" fill="#161b22" stroke="#3fb950" stroke-width="1.5"/>
  <text x="170" y="68" text-anchor="middle" fill="#3fb950" font-size="10" font-family="monospace">CORS</text>
  <text x="170" y="84" text-anchor="middle" fill="#8b949e" font-size="9" font-family="monospace">Middleware</text>
  <rect x="230" y="50" width="80" height="44" rx="5" fill="#161b22" stroke="#3fb950" stroke-width="1.5"/>
  <text x="270" y="68" text-anchor="middle" fill="#3fb950" font-size="10" font-family="monospace">authMW</text>
  <text x="270" y="84" text-anchor="middle" fill="#8b949e" font-size="9" font-family="monospace">JWT Verify</text>
  <rect x="330" y="50" width="80" height="44" rx="5" fill="#161b22" stroke="#3fb950" stroke-width="1.5"/>
  <text x="370" y="68" text-anchor="middle" fill="#3fb950" font-size="10" font-family="monospace">roleMW</text>
  <text x="370" y="84" text-anchor="middle" fill="#8b949e" font-size="9" font-family="monospace">Role Check</text>
  <rect x="430" y="50" width="80" height="44" rx="5" fill="#161b22" stroke="#3fb950" stroke-width="1.5"/>
  <text x="470" y="68" text-anchor="middle" fill="#3fb950" font-size="10" font-family="monospace">Router</text>
  <text x="470" y="84" text-anchor="middle" fill="#8b949e" font-size="9" font-family="monospace">/api/...</text>
  <rect x="530" y="50" width="80" height="44" rx="5" fill="#161b22" stroke="#3fb950" stroke-width="1.5"/>
  <text x="570" y="68" text-anchor="middle" fill="#3fb950" font-size="10" font-family="monospace">Controller</text>
  <text x="570" y="84" text-anchor="middle" fill="#8b949e" font-size="9" font-family="monospace">Business Logic</text>
  <!-- Mongoose Model -->
  <rect x="530" y="160" width="80" height="44" rx="5" fill="#161b22" stroke="#ffa657" stroke-width="1.5"/>
  <text x="570" y="178" text-anchor="middle" fill="#ffa657" font-size="10" font-family="monospace">Mongoose</text>
  <text x="570" y="194" text-anchor="middle" fill="#8b949e" font-size="9" font-family="monospace">Model</text>
  <!-- aiService -->
  <rect x="630" y="50" width="80" height="44" rx="5" fill="#161b22" stroke="#d2a8ff" stroke-width="1.5"/>
  <text x="670" y="68" text-anchor="middle" fill="#d2a8ff" font-size="10" font-family="monospace">aiService</text>
  <text x="670" y="84" text-anchor="middle" fill="#8b949e" font-size="9" font-family="monospace">HTTP Proxy</text>
  <!-- FastAPI -->
  <rect x="730" y="50" width="100" height="44" rx="5" fill="#161b22" stroke="#d2a8ff" stroke-width="1.5"/>
  <text x="780" y="68" text-anchor="middle" fill="#d2a8ff" font-size="10" font-family="monospace">FastAPI</text>
  <text x="780" y="84" text-anchor="middle" fill="#8b949e" font-size="9" font-family="monospace">BKT/Graph/Plan</text>
  <!-- MongoDB -->
  <rect x="680" y="200" width="100" height="44" rx="5" fill="#161b22" stroke="#ffa657" stroke-width="1.5"/>
  <text x="730" y="218" text-anchor="middle" fill="#ffa657" font-size="10" font-family="monospace">🍃 MongoDB</text>
  <text x="730" y="234" text-anchor="middle" fill="#8b949e" font-size="9" font-family="monospace">Atlas</text>
  <!-- Gemini -->
  <ellipse cx="780" cy="280" rx="60" ry="28" fill="#161b22" stroke="#ffa657" stroke-width="1.5"/>
  <text x="780" y="276" text-anchor="middle" fill="#ffa657" font-size="10" font-family="monospace">🤖 Gemini Pro</text>
  <text x="780" y="290" text-anchor="middle" fill="#8b949e" font-size="9" font-family="monospace">SSE Stream</text>
  <!-- Arrows: request flow -->
  <line x1="110" y1="155" x2="128" y2="78" stroke="#58a6ff" stroke-width="1.5" marker-end="url(#d4a)"/>
  <line x1="210" y1="72" x2="228" y2="72" stroke="#3fb950" stroke-width="1.5" marker-end="url(#d4g)"/>
  <line x1="310" y1="72" x2="328" y2="72" stroke="#3fb950" stroke-width="1.5" marker-end="url(#d4g)"/>
  <line x1="410" y1="72" x2="428" y2="72" stroke="#3fb950" stroke-width="1.5" marker-end="url(#d4g)"/>
  <line x1="510" y1="72" x2="528" y2="72" stroke="#3fb950" stroke-width="1.5" marker-end="url(#d4g)"/>
  <line x1="610" y1="72" x2="628" y2="72" stroke="#d2a8ff" stroke-width="1.5" marker-end="url(#d4a)"/>
  <line x1="710" y1="72" x2="728" y2="72" stroke="#d2a8ff" stroke-width="1.5" marker-end="url(#d4a)"/>
  <!-- Controller → Mongoose -->
  <line x1="570" y1="94" x2="570" y2="158" stroke="#ffa657" stroke-width="1.5" marker-end="url(#d4o)"/>
  <!-- Mongoose → MongoDB -->
  <line x1="610" y1="182" x2="678" y2="210" stroke="#ffa657" stroke-width="1.5" marker-end="url(#d4o)"/>
  <!-- FastAPI → MongoDB -->
  <line x1="780" y1="94" x2="780" y2="198" stroke="#ffa657" stroke-width="1.5" stroke-dasharray="4,3" marker-end="url(#d4o)"/>
  <!-- FastAPI → Gemini -->
  <line x1="780" y1="94" x2="780" y2="250" stroke="#ffa657" stroke-width="1.5" stroke-dasharray="4,3" marker-end="url(#d4o)"/>
  <!-- 401/403 back to client -->
  <line x1="270" y1="94" x2="110" y2="165" stroke="#f85149" stroke-width="1.5" stroke-dasharray="3,3" marker-end="url(#d4r)"/>
  <text x="160" y="140" fill="#f85149" font-size="8" font-family="monospace">401/403</text>
</svg>