<svg xmlns="http://www.w3.org/2000/svg" viewBox="0 0 820 260" style="width:100%;max-width:820px;background:#0d1117;border:1px solid #30363d;border-radius:8px;display:block;margin:16px 0;">
  <defs>
    <marker id="d2a" markerWidth="10" markerHeight="7" refX="10" refY="3.5" orient="auto">
      <polygon points="0 0, 10 3.5, 0 7" fill="#58a6ff"/>
    </marker>
    <marker id="d2g" markerWidth="10" markerHeight="7" refX="10" refY="3.5" orient="auto">
      <polygon points="0 0, 10 3.5, 0 7" fill="#3fb950"/>
    </marker>
    <marker id="d2o" markerWidth="10" markerHeight="7" refX="10" refY="3.5" orient="auto">
      <polygon points="0 0, 10 3.5, 0 7" fill="#ffa657"/>
    </marker>
  </defs>
  <text x="410" y="22" text-anchor="middle" fill="#58a6ff" font-size="12" font-family="monospace" font-weight="bold">Level 2.1 — Assessment &amp; BKT Engine</text>
  <!-- Student -->
  <ellipse cx="60" cy="130" rx="48" ry="28" fill="#161b22" stroke="#3fb950" stroke-width="1.5"/>
  <text x="60" y="126" text-anchor="middle" fill="#3fb950" font-size="10" font-family="monospace">👤 Student</text>
  <text x="60" y="140" text-anchor="middle" fill="#8b949e" font-size="9" font-family="monospace">Learner</text>
  <!-- DB -->
  <rect x="680" y="104" width="120" height="44" rx="5" fill="#161b22" stroke="#ffa657" stroke-width="1.5"/>
  <text x="740" y="122" text-anchor="middle" fill="#ffa657" font-size="10" font-family="monospace">🍃 MongoDB</text>
  <text x="740" y="138" text-anchor="middle" fill="#8b949e" font-size="9" font-family="monospace">Atlas</text>
  <!-- Process boxes -->
  <rect x="140" y="40" width="110" height="44" rx="5" fill="#161b22" stroke="#58a6ff" stroke-width="1.5"/>
  <text x="195" y="58" text-anchor="middle" fill="#58a6ff" font-size="10" font-family="monospace" font-weight="bold">2.1 Fetch</text>
  <text x="195" y="74" text-anchor="middle" fill="#8b949e" font-size="9" font-family="monospace">Adaptive Questions</text>
  <rect x="280" y="40" width="110" height="44" rx="5" fill="#161b22" stroke="#58a6ff" stroke-width="1.5"/>
  <text x="335" y="58" text-anchor="middle" fill="#58a6ff" font-size="10" font-family="monospace" font-weight="bold">2.2 Submit</text>
  <text x="335" y="74" text-anchor="middle" fill="#8b949e" font-size="9" font-family="monospace">Validate Answers</text>
  <rect x="420" y="40" width="110" height="44" rx="5" fill="#161b22" stroke="#d2a8ff" stroke-width="1.5"/>
  <text x="475" y="58" text-anchor="middle" fill="#d2a8ff" font-size="10" font-family="monospace" font-weight="bold">2.3 BKT</text>
  <text x="475" y="74" text-anchor="middle" fill="#8b949e" font-size="9" font-family="monospace">Algorithm</text>
  <rect x="560" y="40" width="110" height="44" rx="5" fill="#161b22" stroke="#3fb950" stroke-width="1.5"/>
  <text x="615" y="58" text-anchor="middle" fill="#3fb950" font-size="10" font-family="monospace" font-weight="bold">2.4 Update</text>
  <text x="615" y="74" text-anchor="middle" fill="#8b949e" font-size="9" font-family="monospace">Mastery Scores</text>
  <rect x="280" y="170" width="110" height="44" rx="5" fill="#161b22" stroke="#f85149" stroke-width="1.5"/>
  <text x="335" y="188" text-anchor="middle" fill="#f85149" font-size="10" font-family="monospace" font-weight="bold">2.5 Log</text>
  <text x="335" y="204" text-anchor="middle" fill="#8b949e" font-size="9" font-family="monospace">Mistake Journal</text>
  <!-- Arrows -->
  <line x1="108" y1="118" x2="138" y2="68" stroke="#3fb950" stroke-width="1.5" marker-end="url(#d2g)"/>
  <text x="115" y="90" fill="#c9d1d9" font-size="8" font-family="monospace">GET questions</text>
  <line x1="250" y1="62" x2="278" y2="62" stroke="#58a6ff" stroke-width="1.5" marker-end="url(#d2a)"/>
  <line x1="390" y1="62" x2="418" y2="62" stroke="#58a6ff" stroke-width="1.5" marker-end="url(#d2a)"/>
  <line x1="530" y1="62" x2="558" y2="62" stroke="#d2a8ff" stroke-width="1.5" marker-end="url(#d2a)"/>
  <line x1="670" y1="62" x2="678" y2="115" stroke="#3fb950" stroke-width="1.5" marker-end="url(#d2g)"/>
  <text x="680" y="90" fill="#c9d1d9" font-size="8" font-family="monospace">mastery_score</text>
  <line x1="335" y1="84" x2="335" y2="168" stroke="#f85149" stroke-width="1.5" marker-end="url(#d2a)"/>
  <text x="345" y="130" fill="#f85149" font-size="8" font-family="monospace">wrong answers</text>
  <line x1="390" y1="192" x2="678" y2="140" stroke="#f85149" stroke-width="1.5" marker-end="url(#d2a)"/>
  <text x="530" y="178" fill="#c9d1d9" font-size="8" font-family="monospace">MistakeJournal entry</text>
  <line x1="615" y1="84" x2="108" y2="140" stroke="#3fb950" stroke-width="1.5" marker-end="url(#d2g)"/>
  <text x="360" y="130" fill="#3fb950" font-size="8" font-family="monospace">updated mastery map</text>
</svg>