<svg xmlns="http://www.w3.org/2000/svg" viewBox="0 0 820 240" style="width:100%;max-width:820px;background:#0d1117;border:1px solid #30363d;border-radius:8px;display:block;margin:16px 0;">
  <defs>
    <marker id="d3a" markerWidth="10" markerHeight="7" refX="10" refY="3.5" orient="auto">
      <polygon points="0 0, 10 3.5, 0 7" fill="#58a6ff"/>
    </marker>
    <marker id="d3g" markerWidth="10" markerHeight="7" refX="10" refY="3.5" orient="auto">
      <polygon points="0 0, 10 3.5, 0 7" fill="#3fb950"/>
    </marker>
    <marker id="d3o" markerWidth="10" markerHeight="7" refX="10" refY="3.5" orient="auto">
      <polygon points="0 0, 10 3.5, 0 7" fill="#ffa657"/>
    </marker>
    <marker id="d3p" markerWidth="10" markerHeight="7" refX="10" refY="3.5" orient="auto">
      <polygon points="0 0, 10 3.5, 0 7" fill="#d2a8ff"/>
    </marker>
  </defs>
  <text x="410" y="22" text-anchor="middle" fill="#58a6ff" font-size="12" font-family="monospace" font-weight="bold">Level 2.2 — AI Intelligence Widgets</text>
  <!-- Student -->
  <ellipse cx="60" cy="120" rx="48" ry="28" fill="#161b22" stroke="#3fb950" stroke-width="1.5"/>
  <text x="60" y="116" text-anchor="middle" fill="#3fb950" font-size="10" font-family="monospace">👤 Student</text>
  <text x="60" y="130" text-anchor="middle" fill="#8b949e" font-size="9" font-family="monospace">Learner</text>
  <!-- DB -->
  <rect x="680" y="94" width="120" height="44" rx="5" fill="#161b22" stroke="#ffa657" stroke-width="1.5"/>
  <text x="740" y="112" text-anchor="middle" fill="#ffa657" font-size="10" font-family="monospace">🍃 MongoDB</text>
  <text x="740" y="128" text-anchor="middle" fill="#8b949e" font-size="9" font-family="monospace">Atlas</text>
  <!-- Gemini -->
  <ellipse cx="740" cy="200" rx="60" ry="28" fill="#161b22" stroke="#ffa657" stroke-width="1.5"/>
  <text x="740" y="196" text-anchor="middle" fill="#ffa657" font-size="10" font-family="monospace">🤖 Gemini Pro</text>
  <text x="740" y="210" text-anchor="middle" fill="#8b949e" font-size="9" font-family="monospace">LLM API</text>
  <!-- Process boxes -->
  <rect x="140" y="40" width="100" height="44" rx="5" fill="#161b22" stroke="#d2a8ff" stroke-width="1.5"/>
  <text x="190" y="58" text-anchor="middle" fill="#d2a8ff" font-size="10" font-family="monospace" font-weight="bold">4.1 Tutor</text>
  <text x="190" y="74" text-anchor="middle" fill="#8b949e" font-size="9" font-family="monospace">AI Query</text>
  <rect x="260" y="40" width="100" height="44" rx="5" fill="#161b22" stroke="#d2a8ff" stroke-width="1.5"/>
  <text x="310" y="58" text-anchor="middle" fill="#d2a8ff" font-size="10" font-family="monospace" font-weight="bold">4.2 Burnout</text>
  <text x="310" y="74" text-anchor="middle" fill="#8b949e" font-size="9" font-family="monospace">Detection</text>
  <rect x="380" y="40" width="100" height="44" rx="5" fill="#161b22" stroke="#d2a8ff" stroke-width="1.5"/>
  <text x="430" y="58" text-anchor="middle" fill="#d2a8ff" font-size="10" font-family="monospace" font-weight="bold">4.3 Risk</text>
  <text x="430" y="74" text-anchor="middle" fill="#8b949e" font-size="9" font-family="monospace">Prediction</text>
  <rect x="500" y="40" width="100" height="44" rx="5" fill="#161b22" stroke="#d2a8ff" stroke-width="1.5"/>
  <text x="550" y="58" text-anchor="middle" fill="#d2a8ff" font-size="10" font-family="monospace" font-weight="bold">4.4 Style</text>
  <text x="550" y="74" text-anchor="middle" fill="#8b949e" font-size="9" font-family="monospace">Detection</text>
  <rect x="620" y="40" width="100" height="44" rx="5" fill="#161b22" stroke="#d2a8ff" stroke-width="1.5"/>
  <text x="670" y="58" text-anchor="middle" fill="#d2a8ff" font-size="10" font-family="monospace" font-weight="bold">4.5 Graph</text>
  <text x="670" y="74" text-anchor="middle" fill="#8b949e" font-size="9" font-family="monospace">Generation</text>
  <!-- Student → processes -->
  <line x1="108" y1="108" x2="138" y2="68" stroke="#3fb950" stroke-width="1.5" marker-end="url(#d3g)"/>
  <line x1="108" y1="115" x2="258" y2="68" stroke="#3fb950" stroke-width="1.5" marker-end="url(#d3g)"/>
  <line x1="108" y1="120" x2="378" y2="68" stroke="#3fb950" stroke-width="1.5" marker-end="url(#d3g)"/>
  <line x1="108" y1="125" x2="498" y2="68" stroke="#3fb950" stroke-width="1.5" marker-end="url(#d3g)"/>
  <line x1="108" y1="130" x2="618" y2="68" stroke="#3fb950" stroke-width="1.5" marker-end="url(#d3g)"/>
  <!-- 4.1 → Gemini -->
  <line x1="190" y1="84" x2="680" y2="185" stroke="#ffa657" stroke-width="1.5" stroke-dasharray="4,3" marker-end="url(#d3o)"/>
  <text x="430" y="148" fill="#ffa657" font-size="9" font-family="monospace">prompt + context → SSE stream</text>
  <!-- DB → processes -->
  <line x1="680" y1="116" x2="720" y2="84" stroke="#ffa657" stroke-width="1.5" stroke-dasharray="4,3" marker-end="url(#d3o)"/>
  <!-- Processes → Student (results) -->
  <line x1="190" y1="84" x2="108" y2="132" stroke="#d2a8ff" stroke-width="1.5" marker-end="url(#d3p)"/>
  <line x1="310" y1="84" x2="108" y2="132" stroke="#d2a8ff" stroke-width="1.5" marker-end="url(#d3p)"/>
  <line x1="430" y1="84" x2="108" y2="132" stroke="#d2a8ff" stroke-width="1.5" marker-end="url(#d3p)"/>
</svg>