<svg xmlns="http://www.w3.org/2000/svg" viewBox="0 0 900 620" style="width:100%;max-width:900px;background:#0d1117;border:1px solid #30363d;border-radius:8px;display:block;margin:16px 0;">
  <defs>
    <marker id="era" markerWidth="10" markerHeight="7" refX="10" refY="3.5" orient="auto">
      <polygon points="0 0, 10 3.5, 0 7" fill="#58a6ff"/>
    </marker>
    <marker id="erg" markerWidth="10" markerHeight="7" refX="10" refY="3.5" orient="auto">
      <polygon points="0 0, 10 3.5, 0 7" fill="#3fb950"/>
    </marker>
    <marker id="ero" markerWidth="10" markerHeight="7" refX="10" refY="3.5" orient="auto">
      <polygon points="0 0, 10 3.5, 0 7" fill="#ffa657"/>
    </marker>
    <marker id="erp" markerWidth="10" markerHeight="7" refX="10" refY="3.5" orient="auto">
      <polygon points="0 0, 10 3.5, 0 7" fill="#d2a8ff"/>
    </marker>
  </defs>
  <text x="450" y="22" text-anchor="middle" fill="#58a6ff" font-size="13" font-family="monospace" font-weight="bold">EduPath AI — Entity Relationship Diagram</text>

  <!-- STUDENTS (center) -->
  <rect x="340" y="240" width="160" height="130" rx="5" fill="#161b22" stroke="#58a6ff" stroke-width="2"/>
  <rect x="340" y="240" width="160" height="22" rx="5" fill="#1f3a5f"/>
  <text x="420" y="256" text-anchor="middle" fill="#58a6ff" font-size="11" font-family="monospace" font-weight="bold">STUDENTS</text>
  <text x="350" y="276" fill="#c9d1d9" font-size="9" font-family="monospace">_id (PK)</text>
  <text x="350" y="290" fill="#c9d1d9" font-size="9" font-family="monospace">name, email (UK)</text>
  <text x="350" y="304" fill="#c9d1d9" font-size="9" font-family="monospace">passwordHash, role</text>
  <text x="350" y="318" fill="#c9d1d9" font-size="9" font-family="monospace">careerGoal, xp, level</text>
  <text x="350" y="332" fill="#c9d1d9" font-size="9" font-family="monospace">streak, createdAt</text>
  <text x="350" y="346" fill="#8b949e" font-size="9" font-family="monospace">→ 1:many to most entities</text>
  <text x="350" y="360" fill="#8b949e" font-size="9" font-family="monospace">via studentId FK</text>

  <!-- SKILLNODES (top center) -->
  <rect x="340" y="40" width="160" height="110" rx="5" fill="#161b22" stroke="#3fb950" stroke-width="2"/>
  <rect x="340" y="40" width="160" height="22" rx="5" fill="#1a3a2a"/>
  <text x="420" y="56" text-anchor="middle" fill="#3fb950" font-size="11" font-family="monospace" font-weight="bold">SKILLNODES</text>
  <text x="350" y="76" fill="#c9d1d9" font-size="9" font-family="monospace">_id (PK), skillId (UK)</text>
  <text x="350" y="90" fill="#c9d1d9" font-size="9" font-family="monospace">name, subject</text>
  <text x="350" y="104" fill="#c9d1d9" font-size="9" font-family="monospace">difficulty, description</text>
  <text x="350" y="118" fill="#c9d1d9" font-size="9" font-family="monospace">prerequisites[]</text>
  <text x="350" y="132" fill="#8b949e" font-size="9" font-family="monospace">→ 1:many to mastery, Q&amp;A</text>
  <!-- SKILLNODES → STUDENTS line -->
  <line x1="420" y1="150" x2="420" y2="238" stroke="#3fb950" stroke-width="1.5" stroke-dasharray="5,3" marker-end="url(#erg)"/>
  <text x="428" y="200" fill="#3fb950" font-size="9" font-family="monospace">1:many</text>

  <!-- STUDENTMASTERIES (top left) -->
  <rect x="60" y="40" width="160" height="100" rx="5" fill="#161b22" stroke="#ffa657" stroke-width="1.5"/>
  <rect x="60" y="40" width="160" height="22" rx="5" fill="#3a2a1a"/>
  <text x="140" y="56" text-anchor="middle" fill="#ffa657" font-size="10" font-family="monospace" font-weight="bold">STUDENTMASTERIES</text>
  <text x="70" y="76" fill="#c9d1d9" font-size="9" font-family="monospace">_id (PK)</text>
  <text x="70" y="90" fill="#c9d1d9" font-size="9" font-family="monospace">studentId (FK), skillId (FK)</text>
  <text x="70" y="104" fill="#c9d1d9" font-size="9" font-family="monospace">mastery_score, attempts</text>
  <text x="70" y="118" fill="#c9d1d9" font-size="9" font-family="monospace">lastUpdated</text>
  <line x1="220" y1="90" x2="338" y2="280" stroke="#ffa657" stroke-width="1.5" stroke-dasharray="5,3" marker-end="url(#ero)"/>

  <!-- ASSESSMENTQUESTIONS (top right) -->
  <rect x="680" y="40" width="160" height="100" rx="5" fill="#161b22" stroke="#ffa657" stroke-width="1.5"/>
  <rect x="680" y="40" width="160" height="22" rx="5" fill="#3a2a1a"/>
  <text x="760" y="56" text-anchor="middle" fill="#ffa657" font-size="10" font-family="monospace" font-weight="bold">ASSESSMENTQ</text>
  <text x="690" y="76" fill="#c9d1d9" font-size="9" font-family="monospace">_id (PK), skillId (FK)</text>
  <text x="690" y="90" fill="#c9d1d9" font-size="9" font-family="monospace">question, options[]</text>
  <text x="690" y="104" fill="#c9d1d9" font-size="9" font-family="monospace">correctAnswer, difficulty</text>
  <text x="690" y="118" fill="#c9d1d9" font-size="9" font-family="monospace">explanation</text>
  <line x1="680" y1="90" x2="502" y2="280" stroke="#ffa657" stroke-width="1.5" stroke-dasharray="5,3" marker-end="url(#ero)"/>

  <!-- SRSCARDS (left) -->
  <rect x="60" y="200" width="160" height="110" rx="5" fill="#161b22" stroke="#d2a8ff" stroke-width="1.5"/>
  <rect x="60" y="200" width="160" height="22" rx="5" fill="#2a1a3a"/>
  <text x="140" y="216" text-anchor="middle" fill="#d2a8ff" font-size="11" font-family="monospace" font-weight="bold">SRSCARDS</text>
  <text x="70" y="236" fill="#c9d1d9" font-size="9" font-family="monospace">_id (PK)</text>
  <text x="70" y="250" fill="#c9d1d9" font-size="9" font-family="monospace">studentId (FK), skillId (FK)</text>
  <text x="70" y="264" fill="#c9d1d9" font-size="9" font-family="monospace">front, back</text>
  <text x="70" y="278" fill="#c9d1d9" font-size="9" font-family="monospace">interval, easiness</text>
  <text x="70" y="292" fill="#c9d1d9" font-size="9" font-family="monospace">nextReview</text>
  <line x1="220" y1="255" x2="338" y2="305" stroke="#d2a8ff" stroke-width="1.5" stroke-dasharray="5,3" marker-end="url(#erp)"/>

  <!-- MISTAKEJOURNALS (right) -->
  <rect x="680" y="200" width="160" height="110" rx="5" fill="#161b22" stroke="#d2a8ff" stroke-width="1.5"/>
  <rect x="680" y="200" width="160" height="22" rx="5" fill="#2a1a3a"/>
  <text x="760" y="216" text-anchor="middle" fill="#d2a8ff" font-size="11" font-family="monospace" font-weight="bold">MISTAKEJOURNALS</text>
  <text x="690" y="236" fill="#c9d1d9" font-size="9" font-family="monospace">_id (PK)</text>
  <text x="690" y="250" fill="#c9d1d9" font-size="9" font-family="monospace">studentId (FK), skillId (FK)</text>
  <text x="690" y="264" fill="#c9d1d9" font-size="9" font-family="monospace">question, correctAnswer</text>
  <text x="690" y="278" fill="#c9d1d9" font-size="9" font-family="monospace">studentAnswer, resolved</text>
  <text x="690" y="292" fill="#c9d1d9" font-size="9" font-family="monospace">createdAt</text>
  <line x1="680" y1="255" x2="502" y2="305" stroke="#d2a8ff" stroke-width="1.5" stroke-dasharray="5,3" marker-end="url(#erp)"/>

  <!-- STUDYSESSIONS (bottom left) -->
  <rect x="60" y="400" width="160" height="100" rx="5" fill="#161b22" stroke="#58a6ff" stroke-width="1.5"/>
  <rect x="60" y="400" width="160" height="22" rx="5" fill="#1f3a5f"/>
  <text x="140" y="416" text-anchor="middle" fill="#58a6ff" font-size="11" font-family="monospace" font-weight="bold">STUDYSESSIONS</text>
  <text x="70" y="436" fill="#c9d1d9" font-size="9" font-family="monospace">_id (PK), studentId (FK)</text>
  <text x="70" y="450" fill="#c9d1d9" font-size="9" font-family="monospace">startTime, endTime</text>
  <text x="70" y="464" fill="#c9d1d9" font-size="9" font-family="monospace">skillsStudied[], xpEarned</text>
  <text x="70" y="478" fill="#8b949e" font-size="9" font-family="monospace">→ produces PerformanceLogs</text>
  <text x="70" y="492" fill="#8b949e" font-size="9" font-family="monospace">→ generates DistractionLogs</text>
  <line x1="220" y1="450" x2="338" y2="360" stroke="#58a6ff" stroke-width="1.5" stroke-dasharray="5,3" marker-end="url(#era)"/>

  <!-- EXAMSESSIONS (bottom right) -->
  <rect x="680" y="400" width="160" height="100" rx="5" fill="#161b22" stroke="#58a6ff" stroke-width="1.5"/>
  <rect x="680" y="400" width="160" height="22" rx="5" fill="#1f3a5f"/>
  <text x="760" y="416" text-anchor="middle" fill="#58a6ff" font-size="11" font-family="monospace" font-weight="bold">EXAMSESSIONS</text>
  <text x="690" y="436" fill="#c9d1d9" font-size="9" font-family="monospace">_id (PK), studentId (FK)</text>
  <text x="690" y="450" fill="#c9d1d9" font-size="9" font-family="monospace">questions[], answers[]</text>
  <text x="690" y="464" fill="#c9d1d9" font-size="9" font-family="monospace">score, timeTaken</text>
  <text x="690" y="478" fill="#c9d1d9" font-size="9" font-family="monospace">completedAt</text>
  <line x1="680" y1="450" x2="502" y2="360" stroke="#58a6ff" stroke-width="1.5" stroke-dasharray="5,3" marker-end="url(#era)"/>

  <!-- LEARNINGPLANS (bottom center) -->
  <rect x="340" y="500" width="160" height="100" rx="5" fill="#161b22" stroke="#3fb950" stroke-width="1.5"/>
  <rect x="340" y="500" width="160" height="22" rx="5" fill="#1a3a2a"/>
  <text x="420" y="516" text-anchor="middle" fill="#3fb950" font-size="11" font-family="monospace" font-weight="bold">LEARNINGPLANS</text>
  <text x="350" y="536" fill="#c9d1d9" font-size="9" font-family="monospace">_id (PK), studentId (FK)</text>
  <text x="350" y="550" fill="#c9d1d9" font-size="9" font-family="monospace">weeks[], skills[]</text>
  <text x="350" y="564" fill="#c9d1d9" font-size="9" font-family="monospace">strategies[], confidence</text>
  <text x="350" y="578" fill="#c9d1d9" font-size="9" font-family="monospace">generatedAt</text>
  <line x1="420" y1="500" x2="420" y2="372" stroke="#3fb950" stroke-width="1.5" stroke-dasharray="5,3" marker-end="url(#erg)"/>

  <!-- Legend -->
  <line x1="30" y1="580" x2="60" y2="580" stroke="#58a6ff" stroke-width="1.5" stroke-dasharray="5,3"/>
  <text x="68" y="584" fill="#58a6ff" font-size="10" font-family="monospace">studentId FK relationship</text>
  <line x1="260" y1="580" x2="290" y2="580" stroke="#3fb950" stroke-width="1.5" stroke-dasharray="5,3"/>
  <text x="298" y="584" fill="#3fb950" font-size="10" font-family="monospace">skillId FK relationship</text>
  <line x1="490" y1="580" x2="520" y2="580" stroke="#d2a8ff" stroke-width="1.5" stroke-dasharray="5,3"/>
  <text x="528" y="584" fill="#d2a8ff" font-size="10" font-family="monospace">both FKs</text>
</svg>