<svg xmlns="http://www.w3.org/2000/svg" viewBox="0 0 860 480" style="width:100%;max-width:860px;background:#0d1117;border:1px solid #30363d;border-radius:8px;display:block;margin:16px 0;">
  <defs>
    <marker id="arr3" markerWidth="10" markerHeight="7" refX="10" refY="3.5" orient="auto">
      <polygon points="0 0, 10 3.5, 0 7" fill="#58a6ff"/>
    </marker>
  </defs>
  <text x="430" y="28" text-anchor="middle" fill="#c9d1d9" font-size="15" font-family="monospace" font-weight="bold">EduPath AI — User Flow</text>
  <!-- Register/Login -->
  <rect x="340" y="50" width="160" height="45" rx="22" fill="#161b22" stroke="#58a6ff" stroke-width="1.5"/>
  <text x="420" y="78" text-anchor="middle" fill="#58a6ff" font-size="12" font-family="monospace">Register / Login</text>
  <!-- arrow down -->
  <line x1="420" y1="95" x2="420" y2="125" stroke="#58a6ff" stroke-width="1.5" marker-end="url(#arr3)"/>
  <!-- Role check diamond -->
  <polygon points="420,125 490,155 420,185 350,155" fill="#161b22" stroke="#ffa657" stroke-width="1.5"/>
  <text x="420" y="152" text-anchor="middle" fill="#ffa657" font-size="11" font-family="monospace">Role?</text>
  <!-- Student branch left -->
  <line x1="350" y1="155" x2="200" y2="155" stroke="#58a6ff" stroke-width="1.5" marker-end="url(#arr3)"/>
  <text x="275" y="148" text-anchor="middle" fill="#8b949e" font-size="10" font-family="monospace">Student</text>
  <!-- Teacher branch right -->
  <line x1="490" y1="155" x2="640" y2="155" stroke="#3fb950" stroke-width="1.5" marker-end="url(#arr3)"/>
  <text x="565" y="148" text-anchor="middle" fill="#8b949e" font-size="10" font-family="monospace">Teacher</text>
  <!-- Student Dashboard -->
  <rect x="80" y="130" width="120" height="50" rx="6" fill="#161b22" stroke="#58a6ff" stroke-width="1.5"/>
  <text x="140" y="152" text-anchor="middle" fill="#58a6ff" font-size="11" font-family="monospace">Dashboard</text>
  <text x="140" y="168" text-anchor="middle" fill="#8b949e" font-size="10" font-family="monospace">Stats + Recs</text>
  <!-- Teacher Dashboard -->
  <rect x="640" y="130" width="140" height="50" rx="6" fill="#161b22" stroke="#3fb950" stroke-width="1.5"/>
  <text x="710" y="152" text-anchor="middle" fill="#3fb950" font-size="11" font-family="monospace">Teacher Panel</text>
  <text x="710" y="168" text-anchor="middle" fill="#8b949e" font-size="10" font-family="monospace">Class Analytics</text>
  <!-- Student flow down -->
  <line x1="140" y1="180" x2="140" y2="220" stroke="#58a6ff" stroke-width="1.5" marker-end="url(#arr3)"/>
  <!-- Assessment -->
  <rect x="60" y="220" width="160" height="45" rx="6" fill="#161b22" stroke="#d2a8ff" stroke-width="1.5"/>
  <text x="140" y="240" text-anchor="middle" fill="#d2a8ff" font-size="11" font-family="monospace">Take Assessment</text>
  <text x="140" y="256" text-anchor="middle" fill="#8b949e" font-size="10" font-family="monospace">BKT updates mastery</text>
  <line x1="140" y1="265" x2="140" y2="295" stroke="#58a6ff" stroke-width="1.5" marker-end="url(#arr3)"/>
  <!-- Study options row -->
  <rect x="20" y="295" width="100" height="45" rx="6" fill="#161b22" stroke="#58a6ff" stroke-width="1.5"/>
  <text x="70" y="315" text-anchor="middle" fill="#58a6ff" font-size="10" font-family="monospace">AI Tutor</text>
  <text x="70" y="330" text-anchor="middle" fill="#8b949e" font-size="9" font-family="monospace">Gemini chat</text>
  <rect x="130" y="295" width="100" height="45" rx="6" fill="#161b22" stroke="#58a6ff" stroke-width="1.5"/>
  <text x="180" y="315" text-anchor="middle" fill="#58a6ff" font-size="10" font-family="monospace">SRS Review</text>
  <text x="180" y="330" text-anchor="middle" fill="#8b949e" font-size="9" font-family="monospace">SM-2 cards</text>
  <rect x="240" y="295" width="100" height="45" rx="6" fill="#161b22" stroke="#58a6ff" stroke-width="1.5"/>
  <text x="290" y="315" text-anchor="middle" fill="#58a6ff" font-size="10" font-family="monospace">Learn Plan</text>
  <text x="290" y="330" text-anchor="middle" fill="#8b949e" font-size="9" font-family="monospace">Weekly schedule</text>
  <rect x="350" y="295" width="100" height="45" rx="6" fill="#161b22" stroke="#58a6ff" stroke-width="1.5"/>
  <text x="400" y="315" text-anchor="middle" fill="#58a6ff" font-size="10" font-family="monospace">Exam</text>
  <text x="400" y="330" text-anchor="middle" fill="#8b949e" font-size="9" font-family="monospace">Timed session</text>
  <!-- arrows from assessment to each -->
  <line x1="100" y1="265" x2="70" y2="295" stroke="#58a6ff" stroke-width="1" stroke-dasharray="4,3" marker-end="url(#arr3)"/>
  <line x1="140" y1="265" x2="180" y2="295" stroke="#58a6ff" stroke-width="1" stroke-dasharray="4,3" marker-end="url(#arr3)"/>
  <line x1="180" y1="265" x2="290" y2="295" stroke="#58a6ff" stroke-width="1" stroke-dasharray="4,3" marker-end="url(#arr3)"/>
  <line x1="200" y1="265" x2="400" y2="295" stroke="#58a6ff" stroke-width="1" stroke-dasharray="4,3" marker-end="url(#arr3)"/>
  <!-- XP + Leaderboard -->
  <rect x="130" y="390" width="220" height="45" rx="6" fill="#161b22" stroke="#ffa657" stroke-width="1.5"/>
  <text x="240" y="410" text-anchor="middle" fill="#ffa657" font-size="11" font-family="monospace">XP Earned → Leaderboard</text>
  <text x="240" y="426" text-anchor="middle" fill="#8b949e" font-size="10" font-family="monospace">Gamification loop</text>
  <line x1="180" y1="340" x2="240" y2="390" stroke="#ffa657" stroke-width="1" stroke-dasharray="4,3" marker-end="url(#arr3)"/>
  <line x1="400" y1="340" x2="300" y2="390" stroke="#ffa657" stroke-width="1" stroke-dasharray="4,3" marker-end="url(#arr3)"/>
</svg>