<svg xmlns="http://www.w3.org/2000/svg" viewBox="0 0 860 340" style="width:100%;max-width:860px;background:#0d1117;border:1px solid #30363d;border-radius:8px;display:block;margin:16px 0;">
  <defs>
    <marker id="arr2" markerWidth="10" markerHeight="7" refX="10" refY="3.5" orient="auto">
      <polygon points="0 0, 10 3.5, 0 7" fill="#58a6ff"/>
    </marker>
  </defs>
  <text x="430" y="30" text-anchor="middle" fill="#c9d1d9" font-size="15" font-family="monospace" font-weight="bold">EduPath AI — Data Flow</text>
  <!-- Step boxes -->
  <!-- 1 Student answers quiz -->
  <rect x="20" y="70" width="130" height="55" rx="6" fill="#161b22" stroke="#58a6ff" stroke-width="1.5"/>
  <text x="85" y="93" text-anchor="middle" fill="#58a6ff" font-size="11" font-family="monospace">1. Student</text>
  <text x="85" y="110" text-anchor="middle" fill="#8b949e" font-size="10" font-family="monospace">answers quiz</text>
  <!-- arrow -->
  <line x1="150" y1="97" x2="200" y2="97" stroke="#58a6ff" stroke-width="1.5" marker-end="url(#arr2)"/>
  <!-- 2 Backend receives -->
  <rect x="200" y="70" width="130" height="55" rx="6" fill="#161b22" stroke="#3fb950" stroke-width="1.5"/>
  <text x="265" y="93" text-anchor="middle" fill="#3fb950" font-size="11" font-family="monospace">2. Backend</text>
  <text x="265" y="110" text-anchor="middle" fill="#8b949e" font-size="10" font-family="monospace">validates + routes</text>
  <!-- arrow -->
  <line x1="330" y1="97" x2="380" y2="97" stroke="#58a6ff" stroke-width="1.5" marker-end="url(#arr2)"/>
  <!-- 3 AI Service BKT -->
  <rect x="380" y="70" width="130" height="55" rx="6" fill="#161b22" stroke="#d2a8ff" stroke-width="1.5"/>
  <text x="445" y="93" text-anchor="middle" fill="#d2a8ff" font-size="11" font-family="monospace">3. BKT Update</text>
  <text x="445" y="110" text-anchor="middle" fill="#8b949e" font-size="10" font-family="monospace">mastery recalculated</text>
  <!-- arrow -->
  <line x1="510" y1="97" x2="560" y2="97" stroke="#58a6ff" stroke-width="1.5" marker-end="url(#arr2)"/>
  <!-- 4 MongoDB write -->
  <rect x="560" y="70" width="130" height="55" rx="6" fill="#161b22" stroke="#f0883e" stroke-width="1.5"/>
  <text x="625" y="93" text-anchor="middle" fill="#f0883e" font-size="11" font-family="monospace">4. MongoDB</text>
  <text x="625" y="110" text-anchor="middle" fill="#8b949e" font-size="10" font-family="monospace">mastery saved</text>
  <!-- arrow -->
  <line x1="690" y1="97" x2="740" y2="97" stroke="#58a6ff" stroke-width="1.5" marker-end="url(#arr2)"/>
  <!-- 5 Recommend -->
  <rect x="740" y="70" width="100" height="55" rx="6" fill="#161b22" stroke="#ffa657" stroke-width="1.5"/>
  <text x="790" y="93" text-anchor="middle" fill="#ffa657" font-size="11" font-family="monospace">5. Recommend</text>
  <text x="790" y="110" text-anchor="middle" fill="#8b949e" font-size="10" font-family="monospace">top 3 skills</text>

  <!-- Row 2 -->
  <!-- 6 Dashboard updates -->
  <rect x="20" y="200" width="130" height="55" rx="6" fill="#161b22" stroke="#58a6ff" stroke-width="1.5"/>
  <text x="85" y="223" text-anchor="middle" fill="#58a6ff" font-size="11" font-family="monospace">8. Dashboard</text>
  <text x="85" y="240" text-anchor="middle" fill="#8b949e" font-size="10" font-family="monospace">UI updates live</text>
  <!-- arrow left from 7 -->
  <line x1="200" y1="227" x2="150" y2="227" stroke="#58a6ff" stroke-width="1.5" marker-end="url(#arr2)"/>
  <!-- 7 Backend response -->
  <rect x="200" y="200" width="130" height="55" rx="6" fill="#161b22" stroke="#3fb950" stroke-width="1.5"/>
  <text x="265" y="223" text-anchor="middle" fill="#3fb950" font-size="11" font-family="monospace">7. Backend</text>
  <text x="265" y="240" text-anchor="middle" fill="#8b949e" font-size="10" font-family="monospace">returns response</text>
  <!-- arrow left from 6 -->
  <line x1="380" y1="227" x2="330" y2="227" stroke="#58a6ff" stroke-width="1.5" marker-end="url(#arr2)"/>
  <!-- 6 SRS + Mistake log -->
  <rect x="380" y="200" width="130" height="55" rx="6" fill="#161b22" stroke="#d2a8ff" stroke-width="1.5"/>
  <text x="445" y="223" text-anchor="middle" fill="#d2a8ff" font-size="11" font-family="monospace">6. SRS + Mistakes</text>
  <text x="445" y="240" text-anchor="middle" fill="#8b949e" font-size="10" font-family="monospace">auto-logged</text>
  <!-- vertical arrow from 4 down to 6 -->
  <line x1="625" y1="125" x2="625" y2="165" stroke="#58a6ff" stroke-width="1.5"/>
  <line x1="625" y1="165" x2="445" y2="165" stroke="#58a6ff" stroke-width="1.5"/>
  <line x1="445" y1="165" x2="445" y2="200" stroke="#58a6ff" stroke-width="1.5" marker-end="url(#arr2)"/>
  <!-- vertical arrow from 5 down -->
  <line x1="790" y1="125" x2="790" y2="165" stroke="#ffa657" stroke-width="1.5"/>
  <line x1="790" y1="165" x2="265" y2="165" stroke="#ffa657" stroke-width="1.5" stroke-dasharray="5,3"/>
  <line x1="265" y1="165" x2="265" y2="200" stroke="#ffa657" stroke-width="1.5" marker-end="url(#arr2)"/>
  <text x="530" y="158" text-anchor="middle" fill="#ffa657" font-size="10" font-family="monospace">recommendations injected into response</text>
</svg>