<svg xmlns="http://www.w3.org/2000/svg" viewBox="0 0 860 300" style="width:100%;max-width:860px;background:#0d1117;border:1px solid #30363d;border-radius:8px;display:block;margin:16px 0;">
  <text x="430" y="28" text-anchor="middle" fill="#c9d1d9" font-size="15" font-family="monospace" font-weight="bold">EduPath AI — Framework Stack</text>
  <!-- Frontend column -->
  <rect x="30" y="50" width="180" height="220" rx="8" fill="#0d1117" stroke="#58a6ff" stroke-width="1.5"/>
  <text x="120" y="75" text-anchor="middle" fill="#58a6ff" font-size="13" font-family="monospace" font-weight="bold">Frontend</text>
  <rect x="45" y="85" width="150" height="28" rx="4" fill="#161b22" stroke="#30363d" stroke-width="1"/>
  <text x="120" y="104" text-anchor="middle" fill="#c9d1d9" font-size="11" font-family="monospace">React 18 + Vite</text>
  <rect x="45" y="120" width="150" height="28" rx="4" fill="#161b22" stroke="#30363d" stroke-width="1"/>
  <text x="120" y="139" text-anchor="middle" fill="#c9d1d9" font-size="11" font-family="monospace">Tailwind CSS</text>
  <rect x="45" y="155" width="150" height="28" rx="4" fill="#161b22" stroke="#30363d" stroke-width="1"/>
  <text x="120" y="174" text-anchor="middle" fill="#c9d1d9" font-size="11" font-family="monospace">Framer Motion</text>
  <rect x="45" y="190" width="150" height="28" rx="4" fill="#161b22" stroke="#30363d" stroke-width="1"/>
  <text x="120" y="209" text-anchor="middle" fill="#c9d1d9" font-size="11" font-family="monospace">React Flow + Recharts</text>
  <rect x="45" y="225" width="150" height="28" rx="4" fill="#161b22" stroke="#30363d" stroke-width="1"/>
  <text x="120" y="244" text-anchor="middle" fill="#c9d1d9" font-size="11" font-family="monospace">Zustand + Axios</text>
  <!-- Backend column -->
  <rect x="250" y="50" width="180" height="220" rx="8" fill="#0d1117" stroke="#3fb950" stroke-width="1.5"/>
  <text x="340" y="75" text-anchor="middle" fill="#3fb950" font-size="13" font-family="monospace" font-weight="bold">Backend</text>
  <rect x="265" y="85" width="150" height="28" rx="4" fill="#161b22" stroke="#30363d" stroke-width="1"/>
  <text x="340" y="104" text-anchor="middle" fill="#c9d1d9" font-size="11" font-family="monospace">Node.js 18 + Express</text>
  <rect x="265" y="120" width="150" height="28" rx="4" fill="#161b22" stroke="#30363d" stroke-width="1"/>
  <text x="340" y="139" text-anchor="middle" fill="#c9d1d9" font-size="11" font-family="monospace">Mongoose + MongoDB</text>
  <rect x="265" y="155" width="150" height="28" rx="4" fill="#161b22" stroke="#30363d" stroke-width="1"/>
  <text x="340" y="174" text-anchor="middle" fill="#c9d1d9" font-size="11" font-family="monospace">JWT + bcryptjs</text>
  <rect x="265" y="190" width="150" height="28" rx="4" fill="#161b22" stroke="#30363d" stroke-width="1"/>
  <text x="340" y="209" text-anchor="middle" fill="#c9d1d9" font-size="11" font-family="monospace">Nodemailer + Morgan</text>
  <rect x="265" y="225" width="150" height="28" rx="4" fill="#161b22" stroke="#30363d" stroke-width="1"/>
  <text x="340" y="244" text-anchor="middle" fill="#c9d1d9" font-size="11" font-family="monospace">express-async-errors</text>
  <!-- AI Service column -->
  <rect x="470" y="50" width="180" height="220" rx="8" fill="#0d1117" stroke="#d2a8ff" stroke-width="1.5"/>
  <text x="560" y="75" text-anchor="middle" fill="#d2a8ff" font-size="13" font-family="monospace" font-weight="bold">AI Service</text>
  <rect x="485" y="85" width="150" height="28" rx="4" fill="#161b22" stroke="#30363d" stroke-width="1"/>
  <text x="560" y="104" text-anchor="middle" fill="#c9d1d9" font-size="11" font-family="monospace">Python 3.10 + FastAPI</text>
  <rect x="485" y="120" width="150" height="28" rx="4" fill="#161b22" stroke="#30363d" stroke-width="1"/>
  <text x="560" y="139" text-anchor="middle" fill="#c9d1d9" font-size="11" font-family="monospace">NetworkX + NumPy</text>
  <rect x="485" y="155" width="150" height="28" rx="4" fill="#161b22" stroke="#30363d" stroke-width="1"/>
  <text x="560" y="174" text-anchor="middle" fill="#c9d1d9" font-size="11" font-family="monospace">Pydantic + PyMongo</text>
  <rect x="485" y="190" width="150" height="28" rx="4" fill="#161b22" stroke="#30363d" stroke-width="1"/>
  <text x="560" y="209" text-anchor="middle" fill="#c9d1d9" font-size="11" font-family="monospace">google-generativeai</text>
  <rect x="485" y="225" width="150" height="28" rx="4" fill="#161b22" stroke="#30363d" stroke-width="1"/>
  <text x="560" y="244" text-anchor="middle" fill="#c9d1d9" font-size="11" font-family="monospace">Uvicorn + motor</text>
  <!-- Infra column -->
  <rect x="690" y="50" width="150" height="220" rx="8" fill="#0d1117" stroke="#f0883e" stroke-width="1.5"/>
  <text x="765" y="75" text-anchor="middle" fill="#f0883e" font-size="13" font-family="monospace" font-weight="bold">Infra</text>
  <rect x="705" y="85" width="120" height="28" rx="4" fill="#161b22" stroke="#30363d" stroke-width="1"/>
  <text x="765" y="104" text-anchor="middle" fill="#c9d1d9" font-size="11" font-family="monospace">MongoDB Atlas</text>
  <rect x="705" y="120" width="120" height="28" rx="4" fill="#161b22" stroke="#30363d" stroke-width="1"/>
  <text x="765" y="139" text-anchor="middle" fill="#c9d1d9" font-size="11" font-family="monospace">Vercel / Netlify</text>
  <rect x="705" y="155" width="120" height="28" rx="4" fill="#161b22" stroke="#30363d" stroke-width="1"/>
  <text x="765" y="174" text-anchor="middle" fill="#c9d1d9" font-size="11" font-family="monospace">Render / Railway</text>
  <rect x="705" y="190" width="120" height="28" rx="4" fill="#161b22" stroke="#30363d" stroke-width="1"/>
  <text x="765" y="209" text-anchor="middle" fill="#c9d1d9" font-size="11" font-family="monospace">Google Gemini API</text>
  <rect x="705" y="225" width="120" height="28" rx="4" fill="#161b22" stroke="#30363d" stroke-width="1"/>
  <text x="765" y="244" text-anchor="middle" fill="#c9d1d9" font-size="11" font-family="monospace">GitHub Actions CI</text>
</svg>