<svg xmlns="http://www.w3.org/2000/svg" viewBox="0 0 860 300" style="width:100%;max-width:860px;background:#0d1117;border:1px solid #30363d;border-radius:8px;display:block;margin:16px 0;">
  <defs>
    <marker id="s4a" markerWidth="10" markerHeight="7" refX="10" refY="3.5" orient="auto">
      <polygon points="0 0, 10 3.5, 0 7" fill="#58a6ff"/>
    </marker>
    <marker id="s4g" markerWidth="10" markerHeight="7" refX="10" refY="3.5" orient="auto">
      <polygon points="0 0, 10 3.5, 0 7" fill="#3fb950"/>
    </marker>
    <marker id="s4o" markerWidth="10" markerHeight="7" refX="10" refY="3.5" orient="auto">
      <polygon points="0 0, 10 3.5, 0 7" fill="#ffa657"/>
    </marker>
  </defs>
  <text x="430" y="22" text-anchor="middle" fill="#58a6ff" font-size="13" font-family="monospace" font-weight="bold">Sequence 4 — AI Tutor Query (Streaming SSE)</text>
  <rect x="10" y="36" width="70" height="28" rx="4" fill="#161b22" stroke="#3fb950" stroke-width="1.5"/>
  <text x="45" y="55" text-anchor="middle" fill="#3fb950" font-size="9" font-family="monospace">Student</text>
  <rect x="100" y="36" width="90" height="28" rx="4" fill="#161b22" stroke="#58a6ff" stroke-width="1.5"/>
  <text x="145" y="55" text-anchor="middle" fill="#58a6ff" font-size="9" font-family="monospace">React</text>
  <rect x="210" y="36" width="100" height="28" rx="4" fill="#161b22" stroke="#3fb950" stroke-width="1.5"/>
  <text x="260" y="55" text-anchor="middle" fill="#3fb950" font-size="9" font-family="monospace">Node.js :5000</text>
  <rect x="330" y="36" width="110" height="28" rx="4" fill="#161b22" stroke="#d2a8ff" stroke-width="1.5"/>
  <text x="385" y="55" text-anchor="middle" fill="#d2a8ff" font-size="9" font-family="monospace">Python :8000</text>
  <rect x="460" y="36" width="110" height="28" rx="4" fill="#161b22" stroke="#ffa657" stroke-width="1.5"/>
  <text x="515" y="55" text-anchor="middle" fill="#ffa657" font-size="9" font-family="monospace">Gemini Pro</text>
  <line x1="45" y1="64" x2="45" y2="290" stroke="#30363d" stroke-width="1" stroke-dasharray="4,4"/>
  <line x1="145" y1="64" x2="145" y2="290" stroke="#30363d" stroke-width="1" stroke-dasharray="4,4"/>
  <line x1="260" y1="64" x2="260" y2="290" stroke="#30363d" stroke-width="1" stroke-dasharray="4,4"/>
  <line x1="385" y1="64" x2="385" y2="290" stroke="#30363d" stroke-width="1" stroke-dasharray="4,4"/>
  <line x1="515" y1="64" x2="515" y2="290" stroke="#30363d" stroke-width="1" stroke-dasharray="4,4"/>
  <line x1="45" y1="85" x2="135" y2="85" stroke="#3fb950" stroke-width="1.5" marker-end="url(#s4a)"/>
  <text x="90" y="80" text-anchor="middle" fill="#c9d1d9" font-size="8" font-family="monospace">Type question</text>
  <line x1="145" y1="105" x2="250" y2="105" stroke="#58a6ff" stroke-width="1.5" marker-end="url(#s4a)"/>
  <text x="197" y="100" text-anchor="middle" fill="#c9d1d9" font-size="8" font-family="monospace">POST /api/tutor/query + JWT</text>
  <line x1="260" y1="125" x2="375" y2="125" stroke="#3fb950" stroke-width="1.5" marker-end="url(#s4a)"/>
  <text x="317" y="120" text-anchor="middle" fill="#c9d1d9" font-size="8" font-family="monospace">POST /tutor/query { mastery_context }</text>
  <rect x="345" y="133" width="80" height="16" rx="3" fill="#2a1a3a" stroke="#d2a8ff" stroke-width="1"/>
  <text x="385" y="145" text-anchor="middle" fill="#d2a8ff" font-size="8" font-family="monospace">Build mastery-aware prompt</text>
  <line x1="385" y1="151" x2="505" y2="151" stroke="#d2a8ff" stroke-width="1.5" marker-end="url(#s4a)"/>
  <text x="445" y="146" text-anchor="middle" fill="#c9d1d9" font-size="8" font-family="monospace">generateContentStream(prompt)</text>
  <!-- Streaming loop -->
  <rect x="10" y="160" width="560" height="60" rx="4" fill="#0d1117" stroke="#30363d" stroke-width="1" stroke-dasharray="3,3"/>
  <text x="20" y="175" fill="#8b949e" font-size="8" font-family="monospace">loop: streaming chunks</text>
  <line x1="505" y1="185" x2="395" y2="185" stroke="#ffa657" stroke-width="1.5" marker-end="url(#s4o)"/>
  <text x="445" y="180" text-anchor="middle" fill="#c9d1d9" font-size="8" font-family="monospace">SSE chunk</text>
  <line x1="375" y1="195" x2="270" y2="195" stroke="#d2a8ff" stroke-width="1.5" marker-end="url(#s4a)"/>
  <text x="322" y="190" text-anchor="middle" fill="#c9d1d9" font-size="8" font-family="monospace">SSE proxy</text>
  <line x1="250" y1="205" x2="155" y2="205" stroke="#3fb950" stroke-width="1.5" marker-end="url(#s4g)"/>
  <text x="202" y="200" text-anchor="middle" fill="#c9d1d9" font-size="8" font-family="monospace">SSE → append text</text>
  <!-- Done -->
  <line x1="505" y1="235" x2="395" y2="235" stroke="#ffa657" stroke-width="1.5" marker-end="url(#s4o)"/>
  <text x="445" y="230" text-anchor="middle" fill="#c9d1d9" font-size="8" font-family="monospace">[DONE] stream closed</text>
  <line x1="375" y1="255" x2="270" y2="255" stroke="#d2a8ff" stroke-width="1.5" marker-end="url(#s4a)"/>
  <line x1="250" y1="275" x2="155" y2="275" stroke="#3fb950" stroke-width="1.5" marker-end="url(#s4g)"/>
  <text x="202" y="270" text-anchor="middle" fill="#3fb950" font-size="8" font-family="monospace">Full response displayed</text>
</svg>