<svg xmlns="http://www.w3.org/2000/svg" viewBox="0 0 860 340" style="width:100%;max-width:860px;background:#0d1117;border:1px solid #30363d;border-radius:8px;display:block;margin:16px 0;">
  <defs>
    <marker id="s3a" markerWidth="10" markerHeight="7" refX="10" refY="3.5" orient="auto">
      <polygon points="0 0, 10 3.5, 0 7" fill="#58a6ff"/>
    </marker>
    <marker id="s3g" markerWidth="10" markerHeight="7" refX="10" refY="3.5" orient="auto">
      <polygon points="0 0, 10 3.5, 0 7" fill="#3fb950"/>
    </marker>
    <marker id="s3o" markerWidth="10" markerHeight="7" refX="10" refY="3.5" orient="auto">
      <polygon points="0 0, 10 3.5, 0 7" fill="#ffa657"/>
    </marker>
  </defs>
  <text x="430" y="22" text-anchor="middle" fill="#58a6ff" font-size="13" font-family="monospace" font-weight="bold">Sequence 3 — Assessment Submission &amp; BKT Update</text>
  <rect x="10" y="36" width="70" height="28" rx="4" fill="#161b22" stroke="#3fb950" stroke-width="1.5"/>
  <text x="45" y="55" text-anchor="middle" fill="#3fb950" font-size="9" font-family="monospace">Student</text>
  <rect x="100" y="36" width="90" height="28" rx="4" fill="#161b22" stroke="#58a6ff" stroke-width="1.5"/>
  <text x="145" y="55" text-anchor="middle" fill="#58a6ff" font-size="9" font-family="monospace">React</text>
  <rect x="210" y="36" width="100" height="28" rx="4" fill="#161b22" stroke="#3fb950" stroke-width="1.5"/>
  <text x="260" y="55" text-anchor="middle" fill="#3fb950" font-size="9" font-family="monospace">Node.js :5000</text>
  <rect x="330" y="36" width="110" height="28" rx="4" fill="#161b22" stroke="#d2a8ff" stroke-width="1.5"/>
  <text x="385" y="55" text-anchor="middle" fill="#d2a8ff" font-size="9" font-family="monospace">Python :8000</text>
  <rect x="460" y="36" width="110" height="28" rx="4" fill="#161b22" stroke="#ffa657" stroke-width="1.5"/>
  <text x="515" y="55" text-anchor="middle" fill="#ffa657" font-size="9" font-family="monospace">MongoDB Atlas</text>
  <line x1="45" y1="64" x2="45" y2="330" stroke="#30363d" stroke-width="1" stroke-dasharray="4,4"/>
  <line x1="145" y1="64" x2="145" y2="330" stroke="#30363d" stroke-width="1" stroke-dasharray="4,4"/>
  <line x1="260" y1="64" x2="260" y2="330" stroke="#30363d" stroke-width="1" stroke-dasharray="4,4"/>
  <line x1="385" y1="64" x2="385" y2="330" stroke="#30363d" stroke-width="1" stroke-dasharray="4,4"/>
  <line x1="515" y1="64" x2="515" y2="330" stroke="#30363d" stroke-width="1" stroke-dasharray="4,4"/>
  <line x1="45" y1="85" x2="135" y2="85" stroke="#3fb950" stroke-width="1.5" marker-end="url(#s3a)"/>
  <text x="90" y="80" text-anchor="middle" fill="#c9d1d9" font-size="8" font-family="monospace">Submit answers</text>
  <line x1="145" y1="105" x2="250" y2="105" stroke="#58a6ff" stroke-width="1.5" marker-end="url(#s3a)"/>
  <text x="197" y="100" text-anchor="middle" fill="#c9d1d9" font-size="8" font-family="monospace">POST /assessment/submit + JWT</text>
  <rect x="220" y="113" width="80" height="16" rx="3" fill="#1a2a1a" stroke="#3fb950" stroke-width="1"/>
  <text x="260" y="125" text-anchor="middle" fill="#3fb950" font-size="8" font-family="monospace">authMiddleware verify</text>
  <line x1="260" y1="131" x2="375" y2="131" stroke="#3fb950" stroke-width="1.5" marker-end="url(#s3a)"/>
  <text x="317" y="126" text-anchor="middle" fill="#c9d1d9" font-size="8" font-family="monospace">POST /mastery/update</text>
  <line x1="385" y1="151" x2="505" y2="151" stroke="#d2a8ff" stroke-width="1.5" marker-end="url(#s3a)"/>
  <text x="445" y="146" text-anchor="middle" fill="#c9d1d9" font-size="8" font-family="monospace">Find StudentMastery</text>
  <line x1="505" y1="171" x2="395" y2="171" stroke="#ffa657" stroke-width="1.5" marker-end="url(#s3o)"/>
  <text x="445" y="166" text-anchor="middle" fill="#c9d1d9" font-size="8" font-family="monospace">Current mastery scores</text>
  <rect x="345" y="179" width="80" height="28" rx="3" fill="#2a1a3a" stroke="#d2a8ff" stroke-width="1"/>
  <text x="385" y="191" text-anchor="middle" fill="#d2a8ff" font-size="8" font-family="monospace">BKT: P(learned|ev)</text>
  <text x="385" y="203" text-anchor="middle" fill="#8b949e" font-size="8" font-family="monospace">per answer loop</text>
  <line x1="385" y1="209" x2="505" y2="209" stroke="#d2a8ff" stroke-width="1.5" marker-end="url(#s3a)"/>
  <text x="445" y="204" text-anchor="middle" fill="#c9d1d9" font-size="8" font-family="monospace">Update mastery_score</text>
  <line x1="505" y1="229" x2="395" y2="229" stroke="#ffa657" stroke-width="1.5" marker-end="url(#s3o)"/>
  <text x="445" y="224" text-anchor="middle" fill="#c9d1d9" font-size="8" font-family="monospace">Write confirmed</text>
  <line x1="375" y1="249" x2="270" y2="249" stroke="#d2a8ff" stroke-width="1.5" marker-end="url(#s3a)"/>
  <text x="322" y="244" text-anchor="middle" fill="#c9d1d9" font-size="8" font-family="monospace">{ updated_mastery }</text>
  <line x1="260" y1="269" x2="505" y2="269" stroke="#3fb950" stroke-width="1.5" marker-end="url(#s3a)"/>
  <text x="382" y="264" text-anchor="middle" fill="#c9d1d9" font-size="8" font-family="monospace">Log MistakeJournal + Award XP</text>
  <line x1="250" y1="289" x2="155" y2="289" stroke="#3fb950" stroke-width="1.5" marker-end="url(#s3g)"/>
  <text x="202" y="284" text-anchor="middle" fill="#c9d1d9" font-size="8" font-family="monospace">200 { mastery, xpEarned, mistakes[] }</text>
  <line x1="135" y1="309" x2="55" y2="309" stroke="#58a6ff" stroke-width="1.5" marker-end="url(#s3g)"/>
  <text x="95" y="304" text-anchor="middle" fill="#c9d1d9" font-size="8" font-family="monospace">Score + skill progress</text>
</svg>