<svg xmlns="http://www.w3.org/2000/svg" viewBox="0 0 820 260" style="width:100%;max-width:820px;background:#0d1117;border:1px solid #30363d;border-radius:8px;display:block;margin:16px 0;">
  <defs>
    <marker id="s2a" markerWidth="10" markerHeight="7" refX="10" refY="3.5" orient="auto">
      <polygon points="0 0, 10 3.5, 0 7" fill="#58a6ff"/>
    </marker>
    <marker id="s2g" markerWidth="10" markerHeight="7" refX="10" refY="3.5" orient="auto">
      <polygon points="0 0, 10 3.5, 0 7" fill="#3fb950"/>
    </marker>
    <marker id="s2r" markerWidth="10" markerHeight="7" refX="10" refY="3.5" orient="auto">
      <polygon points="0 0, 10 3.5, 0 7" fill="#f85149"/>
    </marker>
  </defs>
  <text x="410" y="22" text-anchor="middle" fill="#58a6ff" font-size="13" font-family="monospace" font-weight="bold">Sequence 2 — User Login</text>
  <rect x="30" y="36" width="80" height="28" rx="4" fill="#161b22" stroke="#3fb950" stroke-width="1.5"/>
  <text x="70" y="55" text-anchor="middle" fill="#3fb950" font-size="10" font-family="monospace">Student</text>
  <rect x="200" y="36" width="100" height="28" rx="4" fill="#161b22" stroke="#58a6ff" stroke-width="1.5"/>
  <text x="250" y="55" text-anchor="middle" fill="#58a6ff" font-size="10" font-family="monospace">React Frontend</text>
  <rect x="400" y="36" width="120" height="28" rx="4" fill="#161b22" stroke="#3fb950" stroke-width="1.5"/>
  <text x="460" y="55" text-anchor="middle" fill="#3fb950" font-size="10" font-family="monospace">Node.js :5000</text>
  <rect x="620" y="36" width="120" height="28" rx="4" fill="#161b22" stroke="#ffa657" stroke-width="1.5"/>
  <text x="680" y="55" text-anchor="middle" fill="#ffa657" font-size="10" font-family="monospace">MongoDB Atlas</text>
  <line x1="70" y1="64" x2="70" y2="250" stroke="#30363d" stroke-width="1" stroke-dasharray="4,4"/>
  <line x1="250" y1="64" x2="250" y2="250" stroke="#30363d" stroke-width="1" stroke-dasharray="4,4"/>
  <line x1="460" y1="64" x2="460" y2="250" stroke="#30363d" stroke-width="1" stroke-dasharray="4,4"/>
  <line x1="680" y1="64" x2="680" y2="250" stroke="#30363d" stroke-width="1" stroke-dasharray="4,4"/>
  <line x1="70" y1="85" x2="240" y2="85" stroke="#3fb950" stroke-width="1.5" marker-end="url(#s2a)"/>
  <text x="155" y="80" text-anchor="middle" fill="#c9d1d9" font-size="9" font-family="monospace">Enter email + password</text>
  <line x1="250" y1="105" x2="450" y2="105" stroke="#58a6ff" stroke-width="1.5" marker-end="url(#s2a)"/>
  <text x="350" y="100" text-anchor="middle" fill="#c9d1d9" font-size="9" font-family="monospace">POST /api/auth/login</text>
  <line x1="460" y1="125" x2="670" y2="125" stroke="#3fb950" stroke-width="1.5" marker-end="url(#s2a)"/>
  <text x="565" y="120" text-anchor="middle" fill="#c9d1d9" font-size="9" font-family="monospace">Student.findOne({ email })</text>
  <line x1="670" y1="145" x2="470" y2="145" stroke="#ffa657" stroke-width="1.5" marker-end="url(#s2a)"/>
  <text x="565" y="140" text-anchor="middle" fill="#c9d1d9" font-size="9" font-family="monospace">Student doc + passwordHash</text>
  <rect x="420" y="155" width="80" height="18" rx="3" fill="#1a2a1a" stroke="#3fb950" stroke-width="1"/>
  <text x="460" y="168" text-anchor="middle" fill="#3fb950" font-size="9" font-family="monospace">bcrypt.compare(pw, hash)</text>
  <!-- Pass path -->
  <line x1="450" y1="185" x2="260" y2="185" stroke="#3fb950" stroke-width="1.5" marker-end="url(#s2g)"/>
  <text x="350" y="180" text-anchor="middle" fill="#3fb950" font-size="9" font-family="monospace">✅ 200 { token, user } → store + redirect</text>
  <!-- Fail path -->
  <line x1="450" y1="210" x2="260" y2="210" stroke="#f85149" stroke-width="1.5" marker-end="url(#s2r)"/>
  <text x="350" y="205" text-anchor="middle" fill="#f85149" font-size="9" font-family="monospace">❌ 401 Invalid credentials → error toast</text>
  <text x="460" y="200" fill="#8b949e" font-size="9" font-family="monospace">alt: wrong pw</text>
</svg>