<svg xmlns="http://www.w3.org/2000/svg" viewBox="0 0 860 400" style="width:100%;max-width:860px;background:#0d1117;border:1px solid #30363d;border-radius:8px;display:block;margin:16px 0;">
  <defs>
    <marker id="s7a" markerWidth="10" markerHeight="7" refX="10" refY="3.5" orient="auto">
      <polygon points="0 0, 10 3.5, 0 7" fill="#58a6ff"/>
    </marker>
    <marker id="s7g" markerWidth="10" markerHeight="7" refX="10" refY="3.5" orient="auto">
      <polygon points="0 0, 10 3.5, 0 7" fill="#3fb950"/>
    </marker>
    <marker id="s7o" markerWidth="10" markerHeight="7" refX="10" refY="3.5" orient="auto">
      <polygon points="0 0, 10 3.5, 0 7" fill="#ffa657"/>
    </marker>
    <marker id="s7p" markerWidth="10" markerHeight="7" refX="10" refY="3.5" orient="auto">
      <polygon points="0 0, 10 3.5, 0 7" fill="#d2a8ff"/>
    </marker>
  </defs>
  <text x="430" y="22" text-anchor="middle" fill="#58a6ff" font-size="13" font-family="monospace" font-weight="bold">Sequence 7 — Learning Plan Generation</text>
  <!-- Participants -->
  <rect x="10" y="36" width="70" height="28" rx="4" fill="#161b22" stroke="#3fb950" stroke-width="1.5"/>
  <text x="45" y="55" text-anchor="middle" fill="#3fb950" font-size="9" font-family="monospace">Student</text>
  <rect x="100" y="36" width="90" height="28" rx="4" fill="#161b22" stroke="#58a6ff" stroke-width="1.5"/>
  <text x="145" y="55" text-anchor="middle" fill="#58a6ff" font-size="9" font-family="monospace">React</text>
  <rect x="210" y="36" width="100" height="28" rx="4" fill="#161b22" stroke="#3fb950" stroke-width="1.5"/>
  <text x="260" y="55" text-anchor="middle" fill="#3fb950" font-size="9" font-family="monospace">Node.js :5000</text>
  <rect x="330" y="36" width="110" height="28" rx="4" fill="#161b22" stroke="#d2a8ff" stroke-width="1.5"/>
  <text x="385" y="55" text-anchor="middle" fill="#d2a8ff" font-size="9" font-family="monospace">Python :8000</text>
  <rect x="460" y="36" width="110" height="28" rx="4" fill="#161b22" stroke="#ffa657" stroke-width="1.5"/>
  <text x="515" y="55" text-anchor="middle" fill="#ffa657" font-size="9" font-family="monospace">MongoDB Atlas</text>
  <!-- Lifelines -->
  <line x1="45" y1="64" x2="45" y2="390" stroke="#30363d" stroke-width="1" stroke-dasharray="4,4"/>
  <line x1="145" y1="64" x2="145" y2="390" stroke="#30363d" stroke-width="1" stroke-dasharray="4,4"/>
  <line x1="260" y1="64" x2="260" y2="390" stroke="#30363d" stroke-width="1" stroke-dasharray="4,4"/>
  <line x1="385" y1="64" x2="385" y2="390" stroke="#30363d" stroke-width="1" stroke-dasharray="4,4"/>
  <line x1="515" y1="64" x2="515" y2="390" stroke="#30363d" stroke-width="1" stroke-dasharray="4,4"/>
  <!-- Messages -->
  <line x1="45" y1="85" x2="135" y2="85" stroke="#3fb950" stroke-width="1.5" marker-end="url(#s7a)"/>
  <text x="90" y="80" text-anchor="middle" fill="#c9d1d9" font-size="8" font-family="monospace">Click "Generate Learning Plan"</text>
  <line x1="145" y1="105" x2="250" y2="105" stroke="#58a6ff" stroke-width="1.5" marker-end="url(#s7a)"/>
  <text x="197" y="100" text-anchor="middle" fill="#c9d1d9" font-size="8" font-family="monospace">POST /api/plan/generate + JWT</text>
  <line x1="260" y1="125" x2="505" y2="125" stroke="#3fb950" stroke-width="1.5" marker-end="url(#s7a)"/>
  <text x="382" y="120" text-anchor="middle" fill="#c9d1d9" font-size="8" font-family="monospace">StudentMastery.find({ studentId })</text>
  <line x1="505" y1="145" x2="270" y2="145" stroke="#ffa657" stroke-width="1.5" marker-end="url(#s7o)"/>
  <text x="382" y="140" text-anchor="middle" fill="#c9d1d9" font-size="8" font-family="monospace">Current mastery map</text>
  <line x1="260" y1="165" x2="505" y2="165" stroke="#3fb950" stroke-width="1.5" marker-end="url(#s7a)"/>
  <text x="382" y="160" text-anchor="middle" fill="#c9d1d9" font-size="8" font-family="monospace">Student.findById → careerGoal</text>
  <line x1="505" y1="185" x2="270" y2="185" stroke="#ffa657" stroke-width="1.5" marker-end="url(#s7o)"/>
  <text x="382" y="180" text-anchor="middle" fill="#c9d1d9" font-size="8" font-family="monospace">Student profile</text>
  <line x1="260" y1="205" x2="375" y2="205" stroke="#3fb950" stroke-width="1.5" marker-end="url(#s7a)"/>
  <text x="317" y="200" text-anchor="middle" fill="#c9d1d9" font-size="8" font-family="monospace">POST /plan/generate { mastery_map, career_goal }</text>
  <line x1="385" y1="225" x2="505" y2="225" stroke="#d2a8ff" stroke-width="1.5" marker-end="url(#s7a)"/>
  <text x="445" y="220" text-anchor="middle" fill="#c9d1d9" font-size="8" font-family="monospace">SkillNode.find() — full skill graph</text>
  <line x1="505" y1="245" x2="395" y2="245" stroke="#ffa657" stroke-width="1.5" marker-end="url(#s7o)"/>
  <text x="445" y="240" text-anchor="middle" fill="#c9d1d9" font-size="8" font-family="monospace">All skills + prerequisites</text>
  <!-- ML pipeline box -->
  <rect x="330" y="253" width="200" height="80" rx="4" fill="#0d1117" stroke="#30363d" stroke-width="1" stroke-dasharray="3,3"/>
  <text x="340" y="266" fill="#8b949e" font-size="8" font-family="monospace">ML pipeline</text>
  <rect x="345" y="270" width="170" height="13" rx="2" fill="#2a1a3a" stroke="#d2a8ff" stroke-width="1"/>
  <text x="430" y="280" text-anchor="middle" fill="#d2a8ff" font-size="8" font-family="monospace">Build NetworkX DAG</text>
  <rect x="345" y="287" width="170" height="13" rx="2" fill="#2a1a3a" stroke="#d2a8ff" stroke-width="1"/>
  <text x="430" y="297" text-anchor="middle" fill="#d2a8ff" font-size="8" font-family="monospace">Topological sort (respect prerequisites)</text>
  <rect x="345" y="304" width="170" height="13" rx="2" fill="#2a1a3a" stroke="#d2a8ff" stroke-width="1"/>
  <text x="430" y="314" text-anchor="middle" fill="#d2a8ff" font-size="8" font-family="monospace">Gap analysis: (1 - mastery) × difficulty</text>
  <rect x="345" y="321" width="170" height="8" rx="2" fill="#161b22"/>
  <!-- Return plan -->
  <line x1="375" y1="337" x2="270" y2="337" stroke="#d2a8ff" stroke-width="1.5" marker-end="url(#s7p)"/>
  <text x="322" y="332" text-anchor="middle" fill="#c9d1d9" font-size="8" font-family="monospace">{ weeks: [...], totalWeeks, skills[] }</text>
  <line x1="260" y1="357" x2="505" y2="357" stroke="#3fb950" stroke-width="1.5" marker-end="url(#s7a)"/>
  <text x="382" y="352" text-anchor="middle" fill="#c9d1d9" font-size="8" font-family="monospace">LearningPlan.findOneAndUpdate (upsert)</text>
  <line x1="250" y1="377" x2="155" y2="377" stroke="#3fb950" stroke-width="1.5" marker-end="url(#s7g)"/>
  <text x="202" y="372" text-anchor="middle" fill="#c9d1d9" font-size="8" font-family="monospace">200 { plan } → weekly view rendered</text>
</svg>