<svg xmlns="http://www.w3.org/2000/svg" viewBox="0 0 820 300" style="width:100%;max-width:820px;background:#0d1117;border:1px solid #30363d;border-radius:8px;display:block;margin:16px 0;">
  <defs>
    <marker id="s1a" markerWidth="10" markerHeight="7" refX="10" refY="3.5" orient="auto">
      <polygon points="0 0, 10 3.5, 0 7" fill="#58a6ff"/>
    </marker>
    <marker id="s1g" markerWidth="10" markerHeight="7" refX="10" refY="3.5" orient="auto">
      <polygon points="0 0, 10 3.5, 0 7" fill="#3fb950"/>
    </marker>
  </defs>
  <text x="410" y="22" text-anchor="middle" fill="#58a6ff" font-size="13" font-family="monospace" font-weight="bold">Sequence 1 — User Registration</text>
  <!-- Participants -->
  <rect x="30" y="36" width="80" height="28" rx="4" fill="#161b22" stroke="#3fb950" stroke-width="1.5"/>
  <text x="70" y="55" text-anchor="middle" fill="#3fb950" font-size="10" font-family="monospace">Student</text>
  <rect x="200" y="36" width="100" height="28" rx="4" fill="#161b22" stroke="#58a6ff" stroke-width="1.5"/>
  <text x="250" y="55" text-anchor="middle" fill="#58a6ff" font-size="10" font-family="monospace">React Frontend</text>
  <rect x="400" y="36" width="120" height="28" rx="4" fill="#161b22" stroke="#3fb950" stroke-width="1.5"/>
  <text x="460" y="55" text-anchor="middle" fill="#3fb950" font-size="10" font-family="monospace">Node.js :5000</text>
  <rect x="620" y="36" width="120" height="28" rx="4" fill="#161b22" stroke="#ffa657" stroke-width="1.5"/>
  <text x="680" y="55" text-anchor="middle" fill="#ffa657" font-size="10" font-family="monospace">MongoDB Atlas</text>
  <!-- Lifelines -->
  <line x1="70" y1="64" x2="70" y2="290" stroke="#30363d" stroke-width="1" stroke-dasharray="4,4"/>
  <line x1="250" y1="64" x2="250" y2="290" stroke="#30363d" stroke-width="1" stroke-dasharray="4,4"/>
  <line x1="460" y1="64" x2="460" y2="290" stroke="#30363d" stroke-width="1" stroke-dasharray="4,4"/>
  <line x1="680" y1="64" x2="680" y2="290" stroke="#30363d" stroke-width="1" stroke-dasharray="4,4"/>
  <!-- Messages -->
  <line x1="70" y1="85" x2="240" y2="85" stroke="#3fb950" stroke-width="1.5" marker-end="url(#s1a)"/>
  <text x="155" y="80" text-anchor="middle" fill="#c9d1d9" font-size="9" font-family="monospace">Fill registration form</text>
  <line x1="250" y1="105" x2="450" y2="105" stroke="#58a6ff" stroke-width="1.5" marker-end="url(#s1a)"/>
  <text x="350" y="100" text-anchor="middle" fill="#c9d1d9" font-size="9" font-family="monospace">POST /api/auth/register</text>
  <line x1="460" y1="125" x2="670" y2="125" stroke="#3fb950" stroke-width="1.5" marker-end="url(#s1a)"/>
  <text x="565" y="120" text-anchor="middle" fill="#c9d1d9" font-size="9" font-family="monospace">findOne({ email }) — check duplicate</text>
  <line x1="670" y1="145" x2="470" y2="145" stroke="#ffa657" stroke-width="1.5" marker-end="url(#s1a)"/>
  <text x="565" y="140" text-anchor="middle" fill="#c9d1d9" font-size="9" font-family="monospace">null (no duplicate)</text>
  <rect x="420" y="155" width="80" height="18" rx="3" fill="#1a2a1a" stroke="#3fb950" stroke-width="1"/>
  <text x="460" y="168" text-anchor="middle" fill="#3fb950" font-size="9" font-family="monospace">bcrypt.hash(pw, 10)</text>
  <line x1="460" y1="175" x2="670" y2="175" stroke="#3fb950" stroke-width="1.5" marker-end="url(#s1a)"/>
  <text x="565" y="170" text-anchor="middle" fill="#c9d1d9" font-size="9" font-family="monospace">Student.create({ name, email, hash, role })</text>
  <line x1="670" y1="195" x2="470" y2="195" stroke="#ffa657" stroke-width="1.5" marker-end="url(#s1a)"/>
  <text x="565" y="190" text-anchor="middle" fill="#c9d1d9" font-size="9" font-family="monospace">Saved document with _id</text>
  <rect x="420" y="205" width="80" height="18" rx="3" fill="#1a2a1a" stroke="#3fb950" stroke-width="1"/>
  <text x="460" y="218" text-anchor="middle" fill="#3fb950" font-size="9" font-family="monospace">jwt.sign({ id, role }, 7d)</text>
  <line x1="450" y1="225" x2="260" y2="225" stroke="#3fb950" stroke-width="1.5" marker-end="url(#s1g)"/>
  <text x="350" y="220" text-anchor="middle" fill="#c9d1d9" font-size="9" font-family="monospace">201 { token, user }</text>
  <rect x="210" y="235" width="80" height="18" rx="3" fill="#1f3a5f" stroke="#58a6ff" stroke-width="1"/>
  <text x="250" y="248" text-anchor="middle" fill="#58a6ff" font-size="9" font-family="monospace">Store token → /dashboard</text>
  <line x1="240" y1="255" x2="80" y2="255" stroke="#58a6ff" stroke-width="1.5" marker-end="url(#s1g)"/>
  <text x="160" y="250" text-anchor="middle" fill="#c9d1d9" font-size="9" font-family="monospace">Dashboard loads</text>
</svg>